<svg xmlns="http://www.w3.org/2000/svg" xmlns:xlink="http://www.w3.org/1999/xlink" version="1.1" id="Layer_1" x="0px" y="0px" width="288px" height="150px" viewBox="0 0 288 150" enable-background="new 0 0 288 150" xml:space="preserve">
<g>
	<g>
		<path fill="#EAA241" d="M20.36 104.295v-0.096c0-9.553 7.201-17.377 17.521-17.377c5.041 0 8.4 1.3 11.2 3.4 c0.768 0.6 1.4 1.6 1.4 2.928c0 2.016-1.633 3.6-3.648 3.6c-1.009 0-1.681-0.383-2.208-0.719 c-2.064-1.537-4.225-2.4-6.865-2.4c-5.664 0-9.745 4.703-9.745 10.465v0.096c0 5.8 4 10.6 9.7 10.6 c3.12 0 5.185-0.96 7.297-2.641c0.576-0.479 1.344-0.815 2.208-0.815c1.872 0 3.5 1.5 3.5 3.4 c0 1.152-0.576 2.063-1.248 2.64c-3.024 2.641-6.576 4.225-11.953 4.225C27.705 121.6 20.4 113.9 20.4 104.295z"/>
		<path fill="#EAA241" d="M55.305 89.318c0-2.017 1.632-3.648 3.648-3.648c2.016 0 3.6 1.6 3.6 3.648v9.6 c1.681-2.16 3.841-4.128 7.537-4.128c5.521 0 8.7 3.6 8.7 9.554v13.297c0 2.016-1.632 3.648-3.648 3.6 c-2.016 0-3.647-1.633-3.647-3.648v-10.993c0-3.456-1.633-5.233-4.417-5.233s-4.561 1.777-4.561 5.233v10.993 c0 2.016-1.632 3.648-3.647 3.648c-2.017 0-3.648-1.633-3.648-3.648V89.318z"/>
		<path fill="#EAA241" d="M84.008 98.631c0-2.017 1.632-3.648 3.648-3.648c2.016 0 3.6 1.6 3.6 3.648v1.152 c1.057-2.496 2.784-4.801 4.944-4.801c2.257 0 3.6 1.5 3.6 3.553c0 1.92-1.248 3.072-2.736 3.4 c-3.696 0.863-5.761 3.695-5.761 8.881v6.816c0 2.016-1.632 3.648-3.647 3.648c-2.017 0-3.648-1.633-3.648-3.648V98.631z"/>
		<path fill="#EAA241" d="M102.775 89.125c0-2.111 1.776-3.408 4.081-3.408c2.304 0 4.1 1.3 4.1 3.408v0.097 c0 2.112-1.776 3.456-4.08 3.456c-2.305 0-4.081-1.344-4.081-3.456V89.125z M103.208 98.631c0-2.017 1.632-3.648 3.648-3.648 c2.016 0 3.6 1.6 3.6 3.648v19.01c0 2.016-1.632 3.648-3.647 3.648c-2.017 0-3.648-1.633-3.648-3.648V98.631z"/>
		<path fill="#EAA241" d="M115.494 118.553c-0.768-0.48-1.392-1.345-1.392-2.496c0-1.633 1.248-2.881 2.88-2.881 c0.528 0 1.1 0.1 1.4 0.385c2.448 1.5 4.9 2.3 7 2.304c2.112 0 3.072-0.769 3.072-1.921v-0.096 c0-1.584-2.497-2.111-5.329-2.977c-3.6-1.056-7.681-2.736-7.681-7.729v-0.096c0-5.232 4.225-8.16 9.409-8.16 c2.688 0 5.5 0.7 8 1.968c1.056 0.5 1.7 1.5 1.7 2.736c0 1.632-1.296 2.88-2.928 2.9 c-0.528 0-0.864-0.096-1.344-0.336c-2.064-1.008-4.033-1.632-5.569-1.632c-1.775 0-2.688 0.769-2.688 1.776v0.096 c0 1.4 2.4 2.1 5.2 3.072c3.6 1.2 7.8 2.9 7.8 7.633v0.096c0 5.713-4.272 8.305-9.841 8.3 C122.023 121.5 118.6 120.6 115.5 118.553z"/>
		<path fill="#EAA241" d="M139.783 113.703v-12.192h-0.24c-1.729 0-3.12-1.392-3.12-3.12s1.392-3.121 3.12-3.121h0.24v-3.215 c0-2.018 1.632-3.648 3.647-3.648c2.017 0 3.6 1.6 3.6 3.648v3.215h3.217c1.728 0 3.1 1.4 3.1 3.1 s-1.393 3.12-3.12 3.12h-3.217v10.993c0 1.7 0.7 2.5 2.4 2.496c0.24 0 0.72-0.048 0.864-0.048 c1.632 0 3 1.3 3 3.024c0 1.296-0.864 2.352-1.873 2.736c-1.344 0.527-2.592 0.72-4.176 0.7 C142.807 121.4 139.8 119.7 139.8 113.703z"/>
		<path fill="#EAA241" d="M164.981 104.295v-0.096c0-9.553 7.201-17.377 17.521-17.377c5.041 0 8.4 1.3 11.2 3.4 c0.768 0.6 1.4 1.6 1.4 2.928c0 2.016-1.633 3.6-3.648 3.6c-1.009 0-1.681-0.383-2.208-0.719 c-2.064-1.537-4.225-2.4-6.865-2.4c-5.664 0-9.745 4.703-9.745 10.465v0.096c0 5.8 4 10.6 9.7 10.6 c3.12 0 5.185-0.96 7.297-2.641c0.576-0.479 1.344-0.815 2.208-0.815c1.872 0 3.5 1.5 3.5 3.4 c0 1.152-0.576 2.063-1.248 2.64c-3.024 2.641-6.576 4.225-11.953 4.225C172.326 121.6 165 113.9 165 104.295z"/>
		<path fill="#EAA241" d="M198.39 113.607v-0.096c0-5.616 4.272-8.209 10.368-8.209c2.593 0 4.5 0.4 6.3 1.057v-0.432 c0-3.025-1.872-4.705-5.521-4.705c-2.017 0-3.648 0.288-5.041 0.721c-0.432 0.144-0.72 0.191-1.056 0.2 c-1.68 0-3.024-1.296-3.024-2.977c0-1.296 0.816-2.4 1.969-2.832c2.304-0.863 4.8-1.344 8.208-1.344 c3.984 0 6.9 1.1 8.7 2.88c1.92 1.9 2.8 4.8 2.8 8.209v11.713c0 1.968-1.585 3.505-3.553 3.5 c-2.112 0-3.504-1.488-3.504-3.025v-0.047c-1.776 1.968-4.225 3.264-7.777 3.264C202.374 121.5 198.4 118.7 198.4 113.607z M215.143 111.928v-1.297c-1.248-0.575-2.88-0.959-4.656-0.959c-3.12 0-5.04 1.248-5.04 3.552v0.097 c0 2 1.6 3.1 4 3.119C212.839 116.4 215.1 114.6 215.1 111.928z"/>
		<path fill="#EAA241" d="M227.142 98.631c0-2.017 1.632-3.648 3.647-3.648c2.017 0 3.6 1.6 3.6 3.648v1.152 c1.057-2.496 2.784-4.801 4.944-4.801c2.257 0 3.6 1.5 3.6 3.553c0 1.92-1.248 3.072-2.736 3.4 c-3.696 0.863-5.761 3.695-5.761 8.881v6.816c0 2.016-1.632 3.648-3.648 3.648c-2.016 0-3.647-1.633-3.647-3.648V98.631z"/>
		<path fill="#EAA241" d="M257.479 121.576c-7.729 0-13.44-5.424-13.44-13.297v-0.096c0-7.345 5.232-13.394 12.721-13.394 c8.593 0 12.4 7.1 12.4 12.386c0 2.111-1.488 3.504-3.408 3.504h-14.449c0.72 3.3 3 5 6.3 5 c2.016 0 3.696-0.625 5.185-1.729c0.527-0.385 1.008-0.576 1.775-0.576c1.633 0 2.8 1.2 2.8 2.9 c0 0.96-0.432 1.681-0.96 2.16C264.151 120.4 261.2 121.6 257.5 121.576z M262.184 106.1 c-0.433-3.264-2.353-5.473-5.425-5.473c-3.024 0-4.992 2.16-5.568 5.473H262.184z"/>
	</g>
	<g>
		<path fill="#55595B" d="M1.782 133.797H6.5c2.845 0 4.7 1.5 4.7 3.998v0.035c0 2.719-2.27 4.123-4.952 4.123H3.205v4.447 H1.782V133.797z M6.32 140.657c2.088 0 3.457-1.116 3.457-2.772v-0.037c0-1.8-1.351-2.736-3.386-2.736H3.205v5.546H6.32z"/>
		<path fill="#55595B" d="M13.807 133.797h9.111v1.297h-7.688v4.303h6.878v1.297h-6.878v4.411h7.778v1.296h-9.201V133.797z"/>
		<path fill="#55595B" d="M25.866 133.797h4.376c3.961 0 6.7 2.7 6.7 6.266v0.037c0 3.547-2.736 6.301-6.697 6.301h-4.376 V133.797z M27.289 135.111v9.975h2.953c3.187 0 5.221-2.16 5.221-4.951V140.1c0-2.791-2.034-4.988-5.221-4.988H27.289z"/>
		<path fill="#55595B" d="M40.068 133.797h1.423V146.4h-1.423V133.797z"/>
		<path fill="#55595B" d="M49.844 133.707h1.332L56.92 146.4h-1.531l-1.477-3.33h-6.859l-1.494 3.33H44.1L49.844 133.707z M53.354 141.773l-2.863-6.41l-2.881 6.41H53.354z"/>
		<path fill="#55595B" d="M61.111 135.111H56.88v-1.314h9.903v1.314h-4.231V146.4h-1.44V135.111z"/>
		<path fill="#55595B" d="M69.443 133.797h5.42c1.549 0 2.8 0.5 3.6 1.261c0.612 0.6 1 1.5 1 2.485v0.035 c0 2.089-1.44 3.312-3.421 3.674l3.871 5.148h-1.747l-3.655-4.896h-3.601v4.896h-1.423V133.797z M74.737 140.2 c1.891 0 3.241-0.972 3.241-2.592v-0.037c0-1.548-1.188-2.484-3.224-2.484h-3.889v5.113H74.737z"/>
		<path fill="#55595B" d="M82.584 133.797h1.423V146.4h-1.423V133.797z"/>
		<path fill="#55595B" d="M87.138 140.135V140.1c0-3.566 2.665-6.519 6.374-6.519c2.286 0 3.7 0.8 4.9 1.999l-0.973 1 c-1.062-1.009-2.25-1.729-3.961-1.729c-2.791 0-4.879 2.269-4.879 5.167v0.037c0 2.9 2.1 5.2 4.9 5.2 c1.729 0 2.863-0.666 4.069-1.818l0.937 0.918c-1.314 1.332-2.755 2.215-5.042 2.215C89.82 146.6 87.1 143.8 87.1 140.1 z"/>
		<path fill="#55595B" d="M113.491 144.618c-1.152 1.243-2.484 1.963-4.123 1.963c-2.269 0-3.961-1.423-3.961-3.529v-0.036 c0-1.674 1.116-2.881 3.043-3.637c-0.864-1.008-1.261-1.783-1.261-2.773v-0.035c0-1.656 1.332-2.989 3.331-2.989 c1.765 0 3.1 1.3 3.1 2.845v0.036c0 1.603-1.134 2.629-2.971 3.276l2.881 2.936c0.559-0.811 1.062-1.765 1.513-2.809 l1.17 0.54c-0.558 1.188-1.134 2.269-1.818 3.169l2.197 2.25l-1.081 0.828L113.491 144.618z M112.627 143.736l-3.367-3.475 c-1.674 0.611-2.412 1.638-2.412 2.7v0.036c0 1.4 1.1 2.4 2.6 2.377C110.664 145.4 111.7 144.7 112.6 143.736z M112.249 136.533v-0.035c0-1.008-0.756-1.746-1.782-1.746c-1.135 0-1.909 0.791-1.909 1.818v0.035 c0 0.7 0.3 1.3 1.3 2.323C111.421 138.4 112.2 137.6 112.2 136.533z"/>
		<path fill="#55595B" d="M124.307 133.797h9.057v1.314h-7.634v4.502h6.824v1.296h-6.824v5.491h-1.423V133.797z"/>
		<path fill="#55595B" d="M139.339 133.707h1.332l5.744 12.693h-1.531l-1.476-3.33h-6.86l-1.495 3.33h-1.458L139.339 133.707z M142.85 141.773l-2.863-6.41l-2.881 6.41H142.85z"/>
		<path fill="#55595B" d="M148.895 133.797h1.44l4.592 6.879l4.591-6.879h1.44V146.4h-1.422v-10.209l-4.592 6.752h-0.071 l-4.592-6.733v10.19h-1.387V133.797z"/>
		<path fill="#55595B" d="M164.645 133.797h1.423V146.4h-1.423V133.797z"/>
		<path fill="#55595B" d="M169.756 133.797h1.423v11.289h7.094v1.314h-8.517V133.797z"/>
		<path fill="#55595B" d="M182.502 141.414l-5.239-7.617h1.729l4.249 6.303l4.285-6.303h1.656l-5.239 7.599v5.005h-1.44V141.414z"/>
		<path fill="#55595B" d="M196.846 133.797h1.44l4.592 6.879l4.591-6.879h1.44V146.4h-1.422v-10.209l-4.592 6.752h-0.071 l-4.592-6.733v10.19h-1.387V133.797z"/>
		<path fill="#55595B" d="M212.47 133.797h9.111v1.297h-7.688v4.303h6.878v1.297h-6.878v4.411h7.778v1.296h-9.201V133.797z"/>
		<path fill="#55595B" d="M224.529 133.797h4.376c3.961 0 6.7 2.7 6.7 6.266v0.037c0 3.547-2.736 6.301-6.697 6.301h-4.376 V133.797z M225.952 135.111v9.975h2.953c3.187 0 5.222-2.16 5.222-4.951V140.1c0-2.791-2.035-4.988-5.222-4.988H225.952z"/>
		<path fill="#55595B" d="M238.731 133.797h1.423V146.4h-1.423V133.797z"/>
		<path fill="#55595B" d="M243.286 140.135V140.1c0-3.566 2.665-6.519 6.374-6.519c2.286 0 3.7 0.8 4.9 1.999l-0.973 1 c-1.062-1.009-2.25-1.729-3.961-1.729c-2.791 0-4.879 2.269-4.879 5.167v0.037c0 2.9 2.1 5.2 4.9 5.2 c1.729 0 2.863-0.666 4.069-1.818l0.937 0.918c-1.314 1.332-2.755 2.215-5.042 2.2 C245.969 146.6 243.3 143.8 243.3 140.135z"/>
		<path fill="#55595B" d="M257.253 133.797h1.423V146.4h-1.423V133.797z"/>
		<path fill="#55595B" d="M262.365 133.797h1.333l7.94 10.102v-10.102h1.386V146.4h-1.134l-8.139-10.334V146.4h-1.387V133.797z"/>
		<path fill="#55595B" d="M276.585 133.797h9.111v1.297h-7.688v4.303h6.878v1.297h-6.878v4.411h7.778v1.296h-9.201V133.797z"/>
	</g>
	<path fill-rule="evenodd" clip-rule="evenodd" fill="#55595B" d="M172.516 68.945c-0.27-0.908-0.51-1.719-0.73-2.462 c-0.732 0.367-1.471 0.732-2.209 1.104c-1.156-2.13-2.268-2.555-3.721-1.214c0.463 0.4 0.9 0.7 1.4 1.1 c-0.686 0.056-1.332 0.106-2.182 0.176c0.141 0.4 0.3 0.7 0.4 1.096c-0.756 0-1.557 0-2.414 0 c-0.041-0.538-0.082-1.061-0.146-1.923c-0.48 0.8 0 2.189-1.529 1.45c-0.172-0.59-0.395-1.341-0.676-2.299 c-0.543-0.174-1.68-0.012-1.502-1.427c-0.889 0.514-0.992 1.995-2.264 1.283c-0.625 0.896-0.242 1.3 0.6 1.5 c-0.328 0.263-0.627 0.503-1.025 0.826c-0.984-2.086-0.25-3.944 0.113-5.973c-0.328-0.022-0.766-0.186-1.053-0.045 c-2.592 1.255-4.896 2.944-6.27 5.494c-0.586 1.087-1.098 2.379-1.092 3.76c0.004 0.9 0.4 1.935-0.389 2.8 c-0.068 0.078-0.061 0.3 0 0.406c0.643 1.2 0.4 2.4 0.4 3.62c-0.002 1 1.1 1.2 1.4 2 c3.523 0 7 0 10.387-0.028c0.85-0.018 1.4 0.4 2.1 0.793c-12.307 0-24.616 0-36.948 0 c0.285-0.814 0.896-0.774 1.517-0.772c2.736 0 5.5 0.1 8.207-0.013c1.276-0.029 2.575-0.158 3.813-0.449 c0.512-0.124 1.238-0.389 1.362-1.193c0.185-1.184 1.225-2.227 0.303-3.599c-0.4-0.6-0.224-1.529-0.429-2.327 c-0.461-1.789-1.119-3.38-2.445-4.681c-0.197-0.193-0.526-0.388-0.548-0.605c-0.068-0.738-0.644-1.195-1.117-1.377 c-0.605-0.24-1.474-0.27-2.06-0.006c-1.382 0.618-2.795 0.846-4.247 0.777c-0.416 0.932-0.482 0.933-1.03 0.4 c-0.458-0.444-0.994-0.806-1.676-1.345c0 0.9 0 1.609-0.002 2.36c-0.023 1.336-0.162 1.469-1.563 1.5 c-0.21 0.01-0.422 0-0.703 0c-0.419-0.481-0.872-1.008-1.341-1.552c0.075-0.253 0.199-0.677 0.322-1.103 c-0.84-0.349-1.609-0.667-2.493-1.03c-0.047 0.419-0.106 0.911-0.175 1.493c-0.262-0.112-0.509-0.263-0.78-0.321 c-0.248-0.055-0.516-0.013-0.845-0.013c0.041-0.338-0.006-0.592 0.1-0.704c0.569-0.619 1.185-1.194 1.771-1.799 c0.329-0.334 0.773-0.591 0.683-1.201c-0.021-0.146 0.247-0.411 0.44-0.491c0.859-0.363 1.123-0.831 1.076-2.15 c-0.99 0.195-1.456 0.863-1.681 1.756c-0.579-0.339-0.579-0.339-2.422 0.175c0.167 0.2 0.4 0.3 0.5 0.4 c0.229 0.3 1.2 0.1 0.8 0.846c-0.32 0.533-0.679-0.159-0.996-0.186c-0.317-0.03-0.672 0.351-1.009 0.6 c0.128 0.2 0.3 0.3 0.4 0.489c-0.48 0.316-1.299-0.023-1.529 0.955c-0.098 0.406-1.077 0.614-1.664 0.9 c-0.203 0.096-0.436 0.132-1.057 0.316c0.654 0.4 1 0.5 1.3 0.728c0.231 0.2 0.4 0.5 0.7 1 c-0.686-0.131-1.154-0.261-1.632-0.289c-0.22-0.014-0.491 0.128-0.668 0.279c-0.131 0.108-0.147 0.351-0.214 0.5 c-0.214-0.105-0.464-0.168-0.629-0.322c-0.115-0.108-0.12-0.337-0.188-0.55c-0.869 1 0.6 1.2 0.7 2 c-1.41 0.138-2.681 0.583-3.926 1.175c-0.561 0.268-1.304 0.16-2.056 0.231c0.379-0.745 0.664-1.306 1.059-2.078 c-0.873 0.015-1.058 0.979-1.847 0.829c-0.483-0.092-1.003 0.697-1.688 0.193c0.696-0.443 1.382-0.883 2.228-1.422 c-0.677-0.055-1.203-0.098-1.799-0.145c0-0.791 0-1.546 0-2.467c-0.399 0-0.842-0.139-1.031 0 c-0.434 0.377-1.12 0.977-1.042 1.347c0.284 1.339-1.336 1.563-1.345 2.641c-0.688 0.207-1.382 0.587-2.061 0.6 c-0.514-0.021-0.938 0.787-1.564 0.053c-0.624-0.733 0.604-0.902 0.293-1.475c-0.028-0.053 0.25-0.28 0.507-0.554 c-0.669-0.278-1.248-0.595-1.869-0.732c-0.202-0.046-0.625 0.35-0.744 0.632c-0.428 1.041-0.404 1.061-1.278 0.2 c-0.317-0.3-0.573-0.27-0.871 0.018c-0.595 0.57-0.898-0.058-1.144-0.382c-0.356-0.46 0.128-0.791 0.439-0.979 c0.435-0.262 1.122-0.667 1.42-0.502c0.995 0.6 1.071-0.372 1.446-0.753c0.196-0.192 0.213-0.561 0.31-0.848 c-0.339 0.033-0.676 0.066-1.102 0.109c-0.144-0.607-0.301-1.332 0.522-1.891c0.225 0.4 0.5 0.8 1 1 c0.422 0.2 0.7 0.7 1.2 1.124c0.746-0.92 1.48-1.834 2.226-2.758c-0.357-0.402-0.39-1.182-1.173-1.266 c0.414-0.527 1.011-0.992 1.56-0.469c0.896 0.9 1.482-0.262 2.26-0.195c0.764 0.1 1.522-0.226 1.795-1.146 c0.049-0.178 0.283-0.434 0.43-0.431c1.389 0 2.142-1.006 3.082-1.742c0.549-0.431 1.011-0.486 1.993-0.429 c1.1 0.1 1.287-0.116 1.61-1.644c1.152 0 2.3 0 3.7 0c-0.152-0.271-0.221-0.399-0.299-0.521 c-0.224-0.357-1.023-0.655-0.37-1.13c0.494-0.357 0.8 0.3 1.1 0.667c0.069 0.1 0.1 0.3 0.1 0.4 c0.655 0 1.3 0 2.2 0c-1.175-0.985-2.01-2.071-3.529-2.038c-0.143 0.002-0.317-0.175-0.425-0.312 c-0.836-1.021-0.831-1.023-1.998-0.518c-0.173 0.074-0.364 0.109-0.608 0.178c0.646 0.3 0.3 0.6 0.1 1 c-0.55 0.933-1.036 1.924-2.555 1.782c0.181-0.277 0.294-0.455 0.465-0.716c-0.43-0.065-0.818-0.124-1.419-0.217 c0.788-0.715 1.451-1.314 2.069-1.872c-0.375-0.199-0.804-0.518-1.544-0.173c-0.481 0.228-1.169 0.142-1.69 0.5 c-0.543 0.354-1.082 0.716-1.623 1.074c0.957 1.1 0.9 1.1 0.2 2.334c-0.194 0.322-0.212 0.752-0.384 1.4 c-0.284-0.551-0.464-0.915-0.65-1.274c-0.151-0.29-0.268-0.614-0.477-0.85c-0.279-0.306-0.514-0.241-0.803 0.1 c-1.072 1.371-1.097 1.354-2.364 1.424c-0.277 0.5 0 1.314-0.72 1.564c-0.334 0.109-0.741 0.018-1.415 0 c0.44-0.568 0.671-0.89 0.929-1.184c0.304-0.36 0.707-0.61 0.68-1.213c-0.009-0.242 0.453-0.5 0.749-0.801 c-0.354-0.227-0.78-0.503-1.297-0.834c0.149-0.268 0.304-0.541 0.457-0.814c-0.559-0.299-0.964-0.094-1.476 0.2 c-0.326 0.217-0.907 0.039-1.372 0.039c-0.071-1.783 1.406-0.986 2.186-1.465c-0.195-0.34-0.351-0.615-0.667-1.174 c0.542 0.2 0.8 0.5 1.2 0.504c0.328 0 0.776-0.314 0.995-0.187c0.575 0.3 0.8 0.4 0.943-0.382 c0.157-0.673 0.663-1.258 0.973-1.801c0.393 0.5 0.8 1 1.3 1.585c0.177-0.177 0.311-0.259 0.367-0.378 c0.325-0.635 0.992-1.232 0.65-1.992c-0.399-0.889-1.312-0.564-2.048-0.603c-0.349-0.017-0.699-0.003-1.048-0.003 c-0.398 0.399-0.796 0.797-1.225 1.227c-0.721 0-1.472 0-2.218 0c-0.42-0.779 0.366-0.941 0.69-1.459 c-0.864-0.674-1.259-1.502-0.385-2.571c-0.486-0.313-0.991-0.635-1.488-0.955c-0.066 0.085-0.226 0.245-0.205 0.3 c0.863 1.211-0.312 2.019-0.592 2.999c-0.053 0.177-0.289 0.3-0.436 0.45c-0.971 1.018-0.97 1.018-2.479 0.6 c0.167 0.3 0.3 0.6 0.4 0.752c0.173 0.2 0.4 0.3 0.6 0.49c-0.311 0.311-0.513 0.514-0.708 0.7 c-0.744-0.442-0.744-0.442-1.599 0.337c-0.495-0.292-1.01-0.553-1.456-0.895c-0.095-0.069-0.006-0.623 0.106-0.664 c0.547-0.211 1.133-0.322 1.843-0.507c0.014-0.289 0.006-0.62 0.049-0.943c0.114-0.823 0.597-1.329 1.397-1.528 c0.631-0.158 1.265-0.305 1.892-0.454c-0.167-0.987-0.32-1.887-0.519-3.08c-0.131 0.388-0.147 0.602-0.262 0.7 c-0.109 0.131-0.327 0.272-0.479 0.255c-0.53-0.062-0.257-0.276-0.07-0.486c0.08-0.091 0.157-0.258 0.13-0.357 c-0.084-0.271 0.359-1.368-0.604-0.431c-0.007 0.007-0.095-0.062-0.145-0.102c-1.069-0.876-2.026-1.363-3.549-1.788 c0.27-0.082 0.459-0.119 0.631-0.194c0.112-0.051 0.21-0.151 0.476-0.355c-0.451-0.485-0.885-0.954-1.462-1.575 c-0.278 0.486-0.454 0.793-0.699 1.21c-0.337-0.245-0.655-0.474-1.05-0.764c0.448-0.292 0.833-0.541 1.24-0.805 c-0.364-0.569-0.771-1.213-1.23-1.928c0.521-0.646 0.903-1.401 1.936-1.264c0.073 0 0.236-0.165 0.249-0.271 c0.102-0.83 0.423-0.691 0.943-0.289c0.233 0.2 0.6 0.1 1.1 0.21c-0.635-1.73-1.538-3.407 0.439-5.041 c0.484 0.1 1.564-0.681 2 0.913c0.356-0.276 0.645-0.564 0.984-0.74c0.345-0.175 0.745-0.242 1.209-0.383 c0-0.396 0-0.866 0-1.304c0.906-0.731 1.464-1.757 2.549-2.112c-0.25-0.437-0.502-0.883-0.787-1.378 c0.204-0.043 0.44-0.168 0.578-0.102c0.418 0.2 0.9 1 1.096-0.138c1.098-0.354 2.029-1.222 3.26-1.12 c0.292 0 0.6 0.3 0.8 0.509c0.369 0.3 0.7 0.6 1.2 0.93c0.472-0.934-0.79-1.691 0.154-2.557 c0.552-0.503 0.631-1.525 0.947-2.378c0.24 0.2 0.4 0.3 0.4 0.392c0.392 0.7 1.1 0.6 1.7 0.5 c0.547-0.033 0.285-1.086 1.069-0.907c0.04 0.011-0.531-1.63-0.637-1.597c-0.173 0.049-0.442 0.157-0.456 0.3 c-0.057 0.406-0.025 0.826-0.025 1.322c-0.373 0-0.703 0-1.145 0c-0.052-0.283-0.121-0.664-0.2-1.105 c-0.176-0.026-0.37-0.059-0.563-0.074c-1.316-0.111-1.337-0.173-1.054-1.48c0.102-0.454 0.018-0.945 0.018-1.538 c1.14 0.2 1.5 1 1.9 1.737c0.68-2.481 1.631-2.695 3.835-0.809c0.296-0.43 0.588-0.859 0.937-1.377 c0.477 0.4 0.9 0.7 1.5 1.125c-0.368-1.66-0.373-1.637-1.542-1.881c-0.562-0.119-1.102-0.359-1.862-0.613 c1.028-1.924 2.312-3.523 3.414-5.249c2.921-0.04 3.122-0.208 3.145-2.714c2.324-1.14 3.001-0.963 3.6 0.6 c0.713-0.094 1.064-0.461 1.066-1.217c0-0.316 0.063-0.703 0.256-0.932c0.172-0.203 0.715-0.415 0.816-0.32 c1.021 0.9 1.293-0.021 1.772-0.602c0.285-0.347 0.698-0.579 1.351-1.096c0 0.822-0.033 1.3 0 1.8 c0.047 0.5 1.1 0.1 0.8 0.876c-0.109 0.325-0.295 0.629-0.445 0.941c0.137 0.1 0.3 0.2 0.4 0.3 c0.223-0.331 0.443-0.664 0.665-1.002c0.488 0.7 0.8 0.1 1.025-0.208c0.235-0.299 0.353-0.695 0.555-1.133 c0.528 0.5 1 0.9 1.4 1.349c0.79-0.004 0.933-0.638 1.177-1.276c0.352 0.3 0.7 0.6 1.1 1 c0.337-0.324 0.592-0.654 0.925-0.854c0.173-0.099 0.5 0.1 0.7 0.055c0.319-0.141 0.718-0.365 0.836-0.653 c0.337-0.821 1.108-1.079 1.646-0.759c0.871 0.5 1.131-0.158 1.641-0.521c0.17 0.1 0.4 0.1 0.5 0.3 c0.535 0.4 1.2 0.5 1.6 0.078c0.202-0.244 0.257-0.619 0.473-0.841c0.154-0.163 0.48-0.271 0.698-0.226 c0.284 0.1 0.5 0.3 1.1 0.583c-0.263-0.622-0.397-0.94-0.643-1.52c0.819 0.2 1.641-0.576 1.9 0.7 c0.025 0.1 0.5 0.2 0.7 0.163c1.365-0.018 2.5 0.6 3.9 0.969c-0.342 0.367-0.615 0.66-0.887 0.9 c0.125 0.1 0.2 0.1 0.4 0.198c0.514 0.3 0.6 0.6 0.3 0.815c-0.463 0.231-0.959 0.395-1.465 0.6 c1.383 0.3 1.4 0.3 2.758-1.035c0.367 0.9 1.4 1.1 1.9 1.867c0.412 0.6 1.4 0.5 2 0 c1.041-0.67 2.037-0.782 3.168-0.221c0.305 0.2 0.7 0.1 0.6 0.566c-0.123 0.451-0.455 0.393-0.791 0.1 c-0.107-0.074-0.291-0.046-0.441-0.063c0.039 0.2 0 0.4 0.1 0.55c0.129 0.1 0.4 0 0.6 0.1 c0.342 0.2 0.7 0.4 1 0.585c-0.324 0.323-0.572 0.569-0.826 0.823c0.057 0.1 0.1 0.2 0.2 0.3 c0.338 0.3 0.9 1.2 1 1.643c0.041 0.2 0.2 0.3 0.3 0.441c0.174-0.146 0.445-0.26 0.512-0.441 c0.406-1.209 0.393-1.217 1.455-1.239c0.615-0.013 1.232-0.001 2.018-0.001c-0.184 0.766-0.33 1.367-0.492 2 c0.705-0.426 1.338-0.538 1.963-0.004c0.098-0.39 0.092-1.014 0.307-1.104c0.592-0.247 1.178-0.731 1.887-0.499 c0.186 0.1 0.3 0.4 0.5 0.494c0.186 0.1 0.6 0.3 0.6 0.312c0.479-0.688 0.904-0.366 1.4 0 c0.049 0 0.35-0.25 0.533-0.391c0.182-0.143 0.357-0.288 0.537-0.433c0.482 0.7 1.3 0.3 1.9 0.5 c0.582 1.274-0.902 1.534-1.191 2.489c0.666 1 1.7 0.8 2.8 0.786c0.939 0.9 1.7 2.2 3.4 1.6 c0.381 1.012-0.252 1.753-0.479 2.531c-0.111 0.393-0.588 0.809-1.143 0.246c-0.119-0.125-0.461-0.03-0.701-0.037 c0.051 0.2 0 0.6 0.2 0.701c0.34 0.3 0.8 0.5 1.2 0.766c0.477-0.247 0.979-0.504 1.535-0.791 c0.656 0.5 1.3 1 2.1 1.625c-0.674 0.049-1.328 0.096-2.205 0.161c0.176 0.3 0.3 0.6 0.4 0.7 c0.205 0.1 0.6 0 0.8 0.133c0.596 0.3 0.7 1 0.3 1.569c-0.078 0.116-0.211 0.191-0.289 0.3 c-0.148 0.219-0.275 0.453-0.469 0.78c-0.186-0.403-0.24-0.521-0.291-0.642c-0.051-0.119-0.092-0.242-0.26-0.696 c-0.096 0.78-0.152 1.257-0.207 1.714c0.172 0.1 0.3 0.2 0.4 0.221c1.053 0 2.1 0.1 3.154-0.012 c1.098-0.109 1.9 0.2 2.4 1.25c-0.139 0.256-0.297 0.539-0.523 0.953c0.281 0.3 0.6 0.6 1.1 1.3 c-0.629-0.179-0.961-0.271-1.418-0.398c0.041 0.2 0 0.5 0.2 0.752c0.217 0.4 0.6 0.4 1.1 0.4 c0.129 0 0.3 0.2 0.4 0.362c0.014 0.146-0.238 0.448-0.254 0.44c-0.877-0.439-1.729 0.989-2.639 0.1 c-0.051-0.056-0.537 0.31-0.961 0.562c0.605 0.3 1.1 0.5 1.7 0.836c0 0.4 0 0.9 0 1.8 c0.67-0.423 1.088-0.69 1.535-0.974c1.09 0.9 1.9 1.1 3.4 0.771c0.4-0.075 0.9 0.2 1.5 0.3 c-0.418 0.538-0.779 0.843-0.92 1.229c-0.131 0.362-0.027 0.811-0.027 1.194c0.834 0.4 1.479-0.116 2.172-0.206 c0.652-0.085 1.4 0.3 2.1 0.528c-0.795 0.619-1.525 1.188-2.061 1.608c-0.277 0.7 0.8 1 0.2 1.5 c-0.609 0.5 0.4 0.6 0.1 0.978c-0.1 0.144-0.354 0.367-0.365 0.359c-0.764-0.68-1.109 0.122-1.598 0.4 c-0.156 0.099-0.371 0.104-0.553 0.149c0 0.5 0 0.9 0 1.46c-0.654 0.048-1.314 0.093-2.426 0.2 c0.592 0.2 0.8 0.3 1.1 0.441c0.088 1 0.2 2.1 0.3 3.188c-0.295 0-0.766 0-1.275 0 c-0.605-1.145-0.842-1.101-1.992 0.418c-0.555-0.561-1.115-1.125-1.756-1.774c-0.156 0.429-0.242 0.671-0.33 0.9 c-1.521-0.541-0.264-1.506-0.291-2.27c-0.744 0.014-0.818 0.465-0.871 1.022c-0.049 0.515-0.248 1.013-0.381 1.5 c1.172 0.7 1.2 0.7 0.8 1.417c0.641 0 1.2 0 1.8 0c0.605 0.8 0.9 1.5 0.2 2.3 c0.438 0.3 0.8 0.6 1.2 0.789c0.447 0.3 0.9 0.8 1.4 0.709c1.326-0.148 2.4 0.4 3.4 1.2 c-1.16 0.301-2.23 0.126-3.375-0.408c0.543 1.5 0.5 1.463-0.443 1.967c0.576 0.2 1.1 0.5 1.8 0.7 c-0.518 0.585-0.844 1.142-1.562 0.399c-0.33-0.341-0.936-0.417-1.615-0.692c0.459-0.222 0.832-0.4 1.008-0.484 c-0.318-0.523-0.494-0.816-0.689-1.137c-0.301 0.21-0.506 0.283-0.59 0.428c-0.785 1.336-1.363 1.435-2.08 0.2 c-0.307-0.537-0.426-0.462-0.879-0.274c-0.449 0.19-0.713-0.128-0.936-0.719c-0.105-0.272-0.338-0.605-0.59-0.692 c-0.488-0.176-1.123 0.224-1.537-0.355c-0.623 0.683-1.258-0.149-2.02-0.075c0.324 0.6 0.6 1 0.8 1.4 c0.059 0.1 0.3 0.1 0.4 0.078c0.102-0.012 0.195-0.114 0.447-0.272c0 0.6 0 1.1 0 1.9 c0.598-0.256 1.004-0.426 1.449-0.614c0.303 1.5 1.4 2 2.8 2.304c-1.295 1.07-1.566 0.996-3.73-1.004 c-0.064 0.441-0.125 0.83-0.256 1.713c-0.205-0.855-0.297-1.25-0.389-1.642c-0.668 0.464-1.312 0.907-2.062 1.4 c0.393 0.2 0.8 0.4 1 0.642c0.422 0.5 0.762-0.986 1.2 0.021c0.186 0.4 0.7 0.7 1.2 0.9 c0.525 0.3 0.3 1.3 1.2 1.182c0.006 0.2 0.1 0.5 0 0.713c-0.23 0.71-0.25 0.7 0.5 1.4 c-0.939-0.198-1.879-0.389-2.814-0.608c-0.047-0.01 0.006-0.317-0.07-0.367c-0.193-0.127-0.432-0.189-0.652-0.275 c0.078 0.2 0.2 0.4 0.2 0.595c0.027 0.185-0.035 0.384-0.119 1.075c-0.443-0.977-0.693-1.527-0.918-2.031 c-0.305 0.149-0.656 0.323-1.287 0.637c0.416 0.3 0.8 0.5 1.1 0.753c0.336 0.4 1.1 0.6 0.6 1.4 c-0.016 0 0.4 0.7 1 0.496c-0.082-0.199-0.191-0.389-0.24-0.598c-0.113-0.485 0.213-0.793 0.744-0.613 c0.635 0.2 1.2 0.4 1.9 0.442c0.627 0 1.2 0.3 2.1 0.593c-0.957 0.354-1.75 0.132-2.518 0.2 c-0.271 0.398-0.381 0.8 0.3 0.814c0.482 0 1 0 1.4 0.006c0.25 0.4 0.5 0.7 0.7 1.1 c0.168 0.3 0.3 0.5 0.5 0.793c-0.459 0.398-0.492-0.131-0.699-0.148c-0.346-0.033-0.703 0.021-1.047-0.024 c-0.926-0.124-1.846-0.284-2.768-0.431c-0.58-1.693-2.043-0.361-3.125-1.008c0.088-0.25 0.201-0.577 0.355-1.014 c-0.26-0.13-0.824-0.545-0.926-0.45c-1.033 0.946-1.594 0.122-2.23-0.503c-0.141-0.143-0.301-0.267-0.512-0.45 c-0.713 0.487-1.426 0.97-2.336 1.591c1.316 0.2 2.7 0.2 2.7 1.828c0.812 0 1.5 0 2.2 0 c0.369 0.5 0.7 1.1 1.3 1.848c-0.719-0.262-1.164-0.424-1.637-0.596c-0.494 0.9 0.5 1 0.7 1.7 C174.094 68.3 173.3 68.6 172.5 68.945z M148.488 63.652c0.699-0.279 0.889-0.337 1.057-0.427 c2.262-1.193 2.26-1.196 2.15-3.623c-0.045-1-0.24-1.143-1.709-1.158c0.234 1.307-0.131 2.473-0.871 3.6 C148.879 62.3 148.8 62.8 148.5 63.652z M168.199 56.484c-0.359-0.178-0.758-0.249-0.898-0.48 c-0.174-0.282-0.133-0.698-0.191-1.097c-1.037 0.434-1.912 0.804-2.941 1.235c1.035 1 1.6 2.7 3.5 2.1 c0-0.271-0.055-0.497 0.012-0.677C167.832 57.2 168 56.9 168.2 56.484z M145.105 74.8 c0.756-2.899-0.395-5.183-0.115-7.717c-1.453 1.02-1.527 2.38-1.229 3.568c0.266 1.1 0.7 2.1 0.9 3.2 C144.696 74.1 144.9 74.3 145.1 74.782z M99.713 35.121c0.43 0.7 0.2 1.4 0.2 2 c0.02 0.7 0.4 1 1 1.045c0.373 0 0.76-0.052 0.979-0.07c-0.104-1.08-0.186-1.996-0.283-2.916 c-0.012-0.119-0.114-0.229-0.186-0.358c-0.294 0.278-0.585 0.548-0.817 0.767C100.272 35.4 100 35.3 99.7 35.121z"/>
	<g>
		<rect x="130.7" y="30.1" fill="#FFFFFF" width="24" height="6"/>
		<rect x="139.7" y="20.1" fill="#FFFFFF" width="6" height="32"/>
	</g>
</g>
</svg>
